# xmcd
#
# Track frame offsets:
#	150
#	20625
#	37725
#	56770
#	73709
#	94184
#	111284
#	130329
#
# Disc length: 1963 seconds
#
# Revision: 1
# Processed by: cddbd v1.5.2PL0 Copyright (c) Steve Scherf et al.
# Submitted via: audiograbber 1.83.01
#
DISCID=6c07a908
DTITLE=Various Artist - Country Karaoke Hits V
DYEAR=1900
DGENRE=Karaoke
TTITLE0=Brooks and Dunn - Only in America
TTITLE1=Blake Shelton - Austin
TTITLE2=Lonestar - I'm Already There
TTITLE3=Montgomery Gentry - She Coundn't Change Me
TTITLE4=Brooks and Dunn - Only in America
TTITLE5=Blake Shelton - Austin
TTITLE6=Lonestar - I'm Already There
TTITLE7=Montgomery Gentry - She Couldn't Change Me
EXTD=
EXTT0=Instrumental
EXTT1=Instrumental
EXTT2=Instrumental
EXTT3=Instrumental
EXTT4=Multiplex Vocals
EXTT5=Multiplex Vocals
EXTT6=Multiplex Vocals
EXTT7=Multiplex Vocals
PLAYORDER=
